<?xml version="1.0" encoding="UTF-8"?>
<svg width="88px" height="116px" viewBox="0 0 88 116" version="1.1" xmlns="http://www.w3.org/2000/svg" xmlns:xlink="http://www.w3.org/1999/xlink">
    <!-- Generator: Sketch 45.2 (43514) - http://www.bohemiancoding.com/sketch -->
    <title>nestegg</title>
    <desc>Created with Sketch.</desc>
    <defs>
        <polygon id="path-1" points="85.919841 0 0.00655974294 0 0.00655974294 114.363105 85.919841 114.363105"></polygon>
    </defs>
    <g id="Page-1" stroke="none" stroke-width="1" fill="none" fill-rule="evenodd">
        <g id="Powerpoint" transform="translate(-218.000000, -238.000000)">
            <g id="nestegg" transform="translate(218.546144, 238.000678)">
                <path d="M86.7201296,63.0241516 C86.9683066,64.8771696 87.1775624,66.7570826 87.3431959,68.6626879 C87.587109,71.4646821 87.5059868,74.3644165 87.1121836,77.2826275 C82.3453277,82.797294 76.07804,89.3673139 68.6424621,95.5730494 C68.0833533,96.0397751 67.5171382,96.5039862 66.9452379,96.9656828 C60.6294081,96.6522364 54.5137597,95.2347853 48.6753699,93.0456898 C56.7946917,89.0534302 64.2415305,83.8603004 70.7649762,78.4156044 C76.9291667,73.271126 82.3115451,67.8803293 86.7201296,63.0241516 Z" id="Fill-1" fill="#4AACAC"></path>
                <path d="M86.2870773,81.6621305 C85.0810685,86.626872 82.9679567,91.5312638 79.9759486,95.9893744 C76.7639705,96.6398822 73.587415,96.9721332 70.4557937,97.0232992 C76.5858734,91.8724797 81.9267068,86.4902107 86.2870773,81.6621305 Z" id="Fill-3" fill="#4AACAC"></path>
                <path d="M43.6966343,95.2702079 C37.7962549,97.8198707 31.5700748,99.6693902 25.1008564,100.48083 C30.784655,104.6572 36.9827374,108.436705 43.5693753,111.327037 L43.5693753,111.389464 C43.6026113,111.40477 43.635082,111.420623 43.6684274,111.435164 C43.6928078,111.424887 43.7162042,111.413298 43.7401473,111.402693 C43.7645276,111.413298 43.7884707,111.42445 43.8127417,111.435164 C43.8460871,111.420186 43.8789952,111.40477 43.9117939,111.389464 L43.9117939,111.3266 C50.4985411,108.435831 56.6969515,104.6572 62.3803128,100.48083 C55.9115316,99.6693902 49.6853516,97.8198707 43.7849722,95.2702079 C43.7701034,95.2766583 43.7551253,95.2822341 43.7401473,95.2881379 C43.7256065,95.2825621 43.7110657,95.2766583 43.6966343,95.2702079 Z" id="Fill-4" fill="#7CC3C3"></path>
                <g id="Group-9">
                    <mask id="mask-2" fill="white">
                        <use xlink:href="#path-1"></use>
                    </mask>
                    <g id="Clip-6"></g>
                    <path d="M76.4927251,100.511224 C70.4510925,107.371184 61.9725154,112.595036 51.1873141,114.363105 C49.6042295,113.848493 48.0398401,113.277468 46.4964419,112.652652 C53.426045,109.428757 59.8888131,105.287482 65.7413064,100.805866 C69.2629044,101.044203 72.8511931,100.961332 76.4927251,100.511224 Z" id="Fill-5" fill="#4AACAC" mask="url(#mask-2)"></path>
                    <path d="M43.6731286,-0.0851673292 C43.6509348,-0.0851673292 43.628741,-0.0851673292 43.6061098,-0.0842926968 C27.1913371,0.0797008767 7.61203504,23.8574571 1.55706432,57.9822238 C6.21808966,63.3167161 12.1423028,69.5113 19.2188442,75.4171459 C26.4396999,81.4439097 34.9050482,87.0427597 43.8721074,90.9913969 C52.8182848,87.0436343 61.05601,81.4315556 68.262325,75.4171459 C75.3418182,69.5086761 81.2575037,63.2918984 85.919841,57.9557662 C79.8592945,23.8454309 60.2855682,0.0797008767 43.8750593,-0.0842926968 L43.7401473,-0.0842926968 C43.7179535,-0.0842926968 43.6957597,-0.0851673292 43.6731286,-0.0851673292 Z" id="Fill-7" fill="#7BBC99" mask="url(#mask-2)"></path>
                    <path d="M53.7342335,2.61710272 C50.4100118,0.8812042 47.0821306,-0.0522437766 43.8750593,-0.0842926968 L43.7401473,-0.0842926968 C43.7179535,-0.0842926968 43.6957597,-0.0851673292 43.6731286,-0.0851673292 C43.6509348,-0.0851673292 43.628741,-0.0851673292 43.6061098,-0.0842926968 C27.1913371,0.0797008767 7.61203504,23.8574571 1.55706432,57.9822238 C6.21808966,63.3167161 12.1423028,69.5113 19.2188442,75.4171459 C26.4396999,81.4439097 34.9050482,87.0427597 43.8721074,90.9913969 C52.8182848,87.0436343 61.05601,81.4315556 68.262325,75.4171459 C68.7495124,75.0105445 69.2311883,74.602483 69.7073236,74.1933489 C70.7340583,68.4994606 71.2825399,62.5022866 71.2825399,56.3092204 C71.2825399,34.3557545 64.3903569,14.8638575 53.7342335,2.61710272 Z" id="Combined-Shape" fill="#FFFFFF" opacity="0.260416667" mask="url(#mask-2)"></path>
                    <path d="M0.76103951,63.0241516 C0.512862569,64.8771696 0.303606769,66.7570826 0.13797326,68.6626879 C-0.105939848,71.4646821 -0.0248176941,74.3644165 0.36898554,77.2826275 C5.13551342,82.797294 11.4031291,89.3673139 18.8387071,95.5730494 C19.3978158,96.0397751 19.964031,96.5039862 20.5359312,96.9656828 C26.8517611,96.6522364 32.9674094,95.2347853 38.8057993,93.0456898 C30.6864775,89.0534302 23.2396386,83.8603004 16.7161929,78.4156044 C10.5520025,73.271126 5.16962408,67.8803293 0.76103951,63.0241516 Z" id="Fill-8" fill="#7CC3C3" mask="url(#mask-2)"></path>
                </g>
                <path d="M1.19409187,81.6621305 C2.40010061,86.626872 4.51321247,91.5312638 7.50522055,95.9893744 C10.7171987,96.6398822 13.8937542,96.9721332 17.0254848,97.0232992 C10.8952957,91.8724797 5.55446233,86.4902107 1.19409187,81.6621305 Z" id="Fill-10" fill="#7CC3C3"></path>
                <path d="M10.9884441,100.511224 C17.030186,107.371184 25.5086537,112.595036 36.2938551,114.363105 C37.8769397,113.848493 39.4413291,113.277468 40.9847272,112.652652 C34.0555614,109.428757 27.5923561,105.287482 21.7398627,100.805866 C18.2182647,101.044203 14.629976,100.961332 10.9884441,100.511224 Z" id="Fill-11" fill="#7CC3C3"></path>
                <path d="M43.8302344,113.918901 C43.033335,114.267442 42.6553844,114.553119 41.9823548,114.952498 C42.9701428,115.009677 43.4130347,115.013504 44.4346054,115.014378 C44.87706,114.986609 45.3506735,114.941784 45.8144473,114.886682 C45.1866799,114.614234 44.7010403,114.284935 43.8302344,113.918901 Z" id="Fill-12" fill="#7CC3C3"></path>
                <path d="M68.7440288,80.0692063 C62.7181396,84.9049394 55.9679454,89.4595876 48.6753699,93.0452524 C53.1744789,94.7325277 57.8380188,95.9608395 62.630567,96.5792046 C65.2622265,91.3890267 67.3270149,85.8589447 68.7440288,80.0692063 Z" id="Fill-13" fill="#7CC3C3"></path>
                <path d="M55.7800088,107.658173 C52.7940138,109.48047 49.6951912,111.164356 46.4964419,112.652652 C47.7926471,113.177104 49.1037211,113.663508 50.4284612,114.110664 C52.3254295,112.060307 54.1123035,109.906197 55.7800088,107.658173 Z" id="Fill-14" fill="#7CC3C3"></path>
            </g>
        </g>
    </g>
</svg>